<svg width="27" height="26" viewBox="0 0 27 26" fill="none" xmlns="http://www.w3.org/2000/svg">
    <rect x="0.933105" width="26" height="26" rx="5.23977" fill="#F0F0F0"/>
    <g clip-path="url(#clip0_37_351)">
        <path fillRule="evenodd" clip-rule="evenodd"
              d="M6.45361 7.5C6.45361 7.36739 6.50629 7.24021 6.60006 7.14645C6.69383 7.05268 6.82101 7 6.95361 7H17.4536C17.7188 7 17.9732 6.89464 18.1607 6.70711C18.3483 6.51957 18.4536 6.26522 18.4536 6C18.4536 5.73478 18.3483 5.48043 18.1607 5.29289C17.9732 5.10536 17.7188 5 17.4536 5H6.95361C6.29057 5 5.65469 5.26339 5.18585 5.73223C4.71701 6.20107 4.45361 6.83696 4.45361 7.5V19C4.45361 19.5304 4.66433 20.0391 5.0394 20.4142C5.41447 20.7893 5.92318 21 6.45361 21H20.4536C20.984 21 21.4928 20.7893 21.8678 20.4142C22.2429 20.0391 22.4536 19.5304 22.4536 19V10C22.4536 9.46957 22.2429 8.96086 21.8678 8.58579C21.4928 8.21071 20.984 8 20.4536 8H6.95361C6.82101 8 6.69383 7.94732 6.60006 7.85355C6.50629 7.75979 6.45361 7.63261 6.45361 7.5ZM16.9536 16C17.3514 16 17.733 15.842 18.0143 15.5607C18.2956 15.2794 18.4536 14.8978 18.4536 14.5C18.4536 14.1022 18.2956 13.7206 18.0143 13.4393C17.733 13.158 17.3514 13 16.9536 13C16.5558 13 16.1743 13.158 15.893 13.4393C15.6116 13.7206 15.4536 14.1022 15.4536 14.5C15.4536 14.8978 15.6116 15.2794 15.893 15.5607C16.1743 15.842 16.5558 16 16.9536 16Z"
              fill="black"/>
    </g>
    <defs>
        <clipPath id="clip0_37_351">
            <rect width="24" height="24" fill="white" transform="translate(1.45361 1)"/>
        </clipPath>
    </defs>
</svg>
