<svg width="31" height="31" viewBox="0 0 31 31" fill="none" xmlns="http://www.w3.org/2000/svg">
<g clip-path="url(#clip0_344_146)">
<path d="M15.5 31C24.0604 31 31 24.0604 31 15.5C31 6.93959 24.0604 0 15.5 0C6.93959 0 0 6.93959 0 15.5C0 24.0604 6.93959 31 15.5 31Z" fill="#F7931A"/>
<path d="M22.4643 13.5819C22.7685 11.5514 21.2214 10.4596 19.1076 9.73109L19.7935 6.97984L18.1195 6.56328L17.4511 9.24187C17.0113 9.13144 16.5598 9.02875 16.1094 8.92606L16.7826 6.23003L15.1086 5.8125L14.4228 8.56278C14.0585 8.47947 13.7001 8.39809 13.3533 8.31091L13.3552 8.30219L11.0457 7.72578L10.6001 9.51409C10.6001 9.51409 11.843 9.79891 11.8168 9.81634C12.4949 9.98588 12.617 10.4344 12.5967 10.7909L11.8158 13.9248C11.8623 13.9364 11.9224 13.9539 11.9902 13.98L11.8129 13.9364L10.7183 18.3268C10.6349 18.5322 10.4247 18.8412 9.95004 18.724C9.96747 18.7482 8.73329 18.4208 8.73329 18.4208L7.9021 20.337L10.0818 20.8804C10.4867 20.9822 10.8839 21.0887 11.2743 21.1885L10.5817 23.9707L12.2547 24.3873L12.9406 21.6361C13.3978 21.7591 13.8415 21.8734 14.2755 21.9819L13.5916 24.7215L15.2656 25.1381L15.9582 22.3617C18.8141 22.9022 20.9608 22.6842 21.8647 20.1016C22.5932 18.0226 21.8289 16.8223 20.3263 16.0406C21.421 15.7887 22.2444 15.0689 22.4643 13.5819ZM18.6378 18.9468C18.1214 21.0267 14.6194 19.902 13.484 19.6201L14.4044 15.934C15.5397 16.2178 19.1793 16.7788 18.6378 18.9468ZM19.1561 13.5518C18.6843 15.4438 15.7703 14.4818 14.8258 14.2464L15.6589 10.9042C16.6034 11.1397 19.6482 11.5785 19.1561 13.5518Z" fill="white"/>
</g>
<defs>
<clipPath id="clip0_344_146">
<rect width="31" height="31" fill="white"/>
</clipPath>
</defs>
</svg>
