<svg width="130" height="124" viewBox="0 0 130 124" fill="none" xmlns="http://www.w3.org/2000/svg">
<rect width="130" height="124" rx="8.65772" fill="#F0EEED"/>
<path d="M56.9062 87.4375C56.9062 88.5809 56.5672 89.6987 55.9319 90.6494C55.2967 91.6001 54.3938 92.3411 53.3374 92.7787C52.281 93.2162 51.1186 93.3307 49.9971 93.1077C48.8757 92.8846 47.8456 92.334 47.037 91.5255C46.2285 90.7169 45.6779 89.6868 45.4548 88.5654C45.2318 87.4439 45.3462 86.2815 45.7838 85.2251C46.2214 84.1687 46.9624 83.2658 47.9131 82.6306C48.8638 81.9953 49.9816 81.6562 51.125 81.6562C52.6583 81.6562 54.1288 82.2653 55.213 83.3495C56.2972 84.4337 56.9062 85.9042 56.9062 87.4375ZM81.1875 81.6562C80.0441 81.6562 78.9263 81.9953 77.9756 82.6306C77.0249 83.2658 76.2839 84.1687 75.8463 85.2251C75.4087 86.2815 75.2943 87.4439 75.5173 88.5654C75.7404 89.6868 76.291 90.7169 77.0995 91.5255C77.9081 92.334 78.9382 92.8846 80.0596 93.1077C81.1811 93.3307 82.3435 93.2162 83.3999 92.7787C84.4563 92.3411 85.3592 91.6001 85.9944 90.6494C86.6297 89.6987 86.9687 88.5809 86.9687 87.4375C86.9687 85.9042 86.3596 84.4337 85.2755 83.3495C84.1913 82.2653 82.7208 81.6562 81.1875 81.6562ZM96.0655 46.8329L88.177 72.4727C87.6734 74.1309 86.6485 75.5824 85.2545 76.6119C83.8605 77.6414 82.1717 78.1939 80.4388 78.1875H51.972C50.2142 78.1818 48.5056 77.6067 47.1022 76.5482C45.6988 75.4898 44.6761 74.0051 44.1875 72.3166L34.3045 37.7188H31.4687C30.5488 37.7188 29.6665 37.3533 29.016 36.7028C28.3655 36.0523 28 35.17 28 34.25C28 33.33 28.3655 32.4477 29.016 31.7972C29.6665 31.1467 30.5488 30.7812 31.4687 30.7812H35.1745C36.4301 30.7851 37.6505 31.196 38.6527 31.9522C39.6549 32.7085 40.3849 33.7693 40.7332 34.9755L42.8405 42.3438H92.75C93.2929 42.3437 93.8282 42.4711 94.3128 42.7156C94.7975 42.9602 95.218 43.315 95.5405 43.7517C95.863 44.1884 96.0785 44.6947 96.1697 45.2298C96.2609 45.765 96.2252 46.314 96.0655 46.8329ZM88.0527 49.2812H44.8205L50.8591 70.4117C50.9282 70.6534 51.0742 70.866 51.2751 71.0173C51.4759 71.1686 51.7205 71.2503 51.972 71.25H80.4388C80.6863 71.2505 80.9274 71.1716 81.1267 71.0248C81.326 70.8781 81.4729 70.6713 81.5459 70.4348L88.0527 49.2812Z" fill="black"/>
</svg>
