<svg width="31" height="32" viewBox="0 0 31 32" fill="none" xmlns="http://www.w3.org/2000/svg">
<path d="M15.5082 31.2308C23.8039 31.2308 30.529 24.421 30.529 16.0208C30.529 7.62055 23.8039 0.810806 15.5082 0.810806C7.21246 0.810806 0.487427 7.62055 0.487427 16.0208C0.487427 24.421 7.21246 31.2308 15.5082 31.2308Z" fill="#627EEA"/>
<path d="M15.9763 4.61122V13.0437L23.0145 16.2287L15.9763 4.61122Z" fill="white" fill-opacity="0.602"/>
<path d="M15.9763 4.61122L8.93811 16.2287L15.9763 13.0437V4.61122Z" fill="white"/>
<path d="M15.9763 21.6923V27.422L23.0186 17.5551L15.9763 21.6923Z" fill="white" fill-opacity="0.602"/>
<path d="M15.9763 27.422V21.6923L8.93811 17.5551L15.9763 27.422Z" fill="white"/>
<path d="M15.9763 20.3659L23.0145 16.2287L15.9763 13.0437V20.3659Z" fill="white" fill-opacity="0.2"/>
<path d="M8.93811 16.2287L15.9763 20.3659V13.0437L8.93811 16.2287Z" fill="white" fill-opacity="0.602"/>
</svg>
