<svg width="47" height="47" viewBox="0 0 47 47" fill="none" xmlns="http://www.w3.org/2000/svg">
<rect width="47" height="47" fill="#F0EEED"/>
<path d="M18 13L15 17V31C15 31.5304 15.2107 32.0391 15.5858 32.4142C15.9609 32.7893 16.4696 33 17 33H31C31.5304 33 32.0391 32.7893 32.4142 32.4142C32.7893 32.0391 33 31.5304 33 31V17L30 13H18Z" stroke="#181818" stroke-width="2" stroke-linecap="round" stroke-linejoin="round"/>
<path d="M15 17H33" stroke="#181818" stroke-width="2" stroke-linecap="round" stroke-linejoin="round"/>
<path d="M28 21C28 22.0609 27.5786 23.0783 26.8284 23.8284C26.0783 24.5786 25.0609 25 24 25C22.9391 25 21.9217 24.5786 21.1716 23.8284C20.4214 23.0783 20 22.0609 20 21" stroke="#181818" stroke-width="2" stroke-linecap="round" stroke-linejoin="round"/>
</svg>
