<svg width="24" height="24" viewBox="0 0 24 24" fill="none" xmlns="http://www.w3.org/2000/svg">
<path d="M21.7959 20.2042L17.3438 15.7501C18.6787 14.0106 19.3019 11.8284 19.087 9.64618C18.8722 7.46401 17.8353 5.44527 16.1867 3.99948C14.5382 2.55369 12.4014 1.7891 10.2098 1.86083C8.0183 1.93255 5.93608 2.83521 4.38559 4.3857C2.8351 5.9362 1.93244 8.01841 1.86071 10.21C1.78899 12.4015 2.55357 14.5383 3.99936 16.1868C5.44516 17.8354 7.4639 18.8723 9.64607 19.0871C11.8282 19.302 14.0104 18.6788 15.75 17.3439L20.2059 21.8007C20.3106 21.9054 20.4348 21.9884 20.5715 22.045C20.7083 22.1017 20.8548 22.1308 21.0028 22.1308C21.1508 22.1308 21.2974 22.1017 21.4341 22.045C21.5708 21.9884 21.695 21.9054 21.7997 21.8007C21.9043 21.6961 21.9873 21.5719 22.044 21.4351C22.1006 21.2984 22.1298 21.1519 22.1298 21.0039C22.1298 20.8559 22.1006 20.7093 22.044 20.5726C21.9873 20.4359 21.9043 20.3116 21.7997 20.207L21.7959 20.2042ZM4.125 10.5001C4.125 9.23926 4.49889 8.00672 5.19938 6.95836C5.89988 5.90999 6.89551 5.09289 8.06039 4.61038C9.22527 4.12788 10.5071 4.00163 11.7437 4.24761C12.9803 4.49359 14.1162 5.10075 15.0078 5.99231C15.8994 6.88387 16.5065 8.01979 16.7525 9.25642C16.9985 10.493 16.8722 11.7748 16.3897 12.9397C15.9072 14.1046 15.0901 15.1002 14.0418 15.8007C12.9934 16.5012 11.7609 16.8751 10.5 16.8751C8.80978 16.8734 7.18928 16.2012 5.99411 15.006C4.79895 13.8108 4.12674 12.1903 4.125 10.5001Z" fill="#181818"/>
</svg>
