<svg width="26" height="26" viewBox="0 0 26 26" fill="none" xmlns="http://www.w3.org/2000/svg">
<rect width="26" height="26" rx="5.23977" fill="black"/>
<g clip-path="url(#clip0_37_338)">
<path d="M20.0205 16.4525V17.5833C20.0205 18.2617 19.703 18.8417 19.2622 19.2975C18.8263 19.7492 18.2347 20.1175 17.5688 20.4092C16.2338 20.9925 14.4488 21.3333 12.5205 21.3333C10.5922 21.3333 8.80717 20.9933 7.47217 20.4092C6.80634 20.1175 6.21467 19.7492 5.77884 19.2975C5.37467 18.8808 5.07467 18.3575 5.02717 17.7508L5.02051 17.5833V16.4525C5.40801 16.6725 5.82217 16.8675 6.26551 17.0317C7.95717 17.6575 10.1697 18.0067 12.5205 18.0067C14.8713 18.0067 17.0838 17.6575 18.7755 17.0317C19.108 16.9083 19.4238 16.7683 19.7247 16.6125L20.0205 16.4525ZM5.02051 11.8692C5.40801 12.0892 5.82217 12.2842 6.26551 12.4483C7.95717 13.0742 10.1697 13.4233 12.5205 13.4233C14.8713 13.4233 17.0838 13.0742 18.7755 12.4483C19.2056 12.2896 19.622 12.0959 20.0205 11.8692V14.4567C19.4671 14.8838 18.8524 15.2249 18.1972 15.4683C16.7347 16.01 14.7272 16.3408 12.5205 16.3408C10.3147 16.3408 8.30717 16.01 6.84384 15.4683C6.18858 15.2249 5.57387 14.8838 5.02051 14.4567V11.8692ZM12.5205 5.5C14.4488 5.5 16.2338 5.84 17.5688 6.42417C18.2347 6.71583 18.8263 7.08417 19.2622 7.53583C19.6663 7.9525 19.9663 8.47583 20.0138 9.0825L20.0205 9.25V9.87333C19.4672 10.3005 18.8524 10.6416 18.1972 10.885C16.7347 11.4267 14.7272 11.7575 12.5205 11.7575C10.3147 11.7575 8.30717 11.4267 6.84384 10.885C6.28037 10.676 5.74668 10.3942 5.25634 10.0467L5.02051 9.87333V9.25C5.02051 8.57167 5.33801 7.99167 5.77884 7.53583C6.21467 7.08417 6.80634 6.71583 7.47217 6.42417C8.80717 5.84083 10.5922 5.5 12.5205 5.5Z" fill="white"/>
</g>
<defs>
<clipPath id="clip0_37_338">
<rect width="20" height="20" fill="white" transform="translate(2.52051 3)"/>
</clipPath>
</defs>
</svg>
